<svg clip-rule="evenodd" fill-rule="evenodd" stroke-linecap="square" stroke-miterlimit="1.5" viewBox="0 0 1600 1600" xmlns="http://www.w3.org/2000/svg"><path d="m1600 400c0-220.766-179.23-400-400-400h-800c-220.766 0-400 179.234-400 400v800c0 220.77 179.234 400 400 400h800c220.77 0 400-179.23 400-400z" fill="#74d1ea"/><g transform="matrix(.909091 0 0 .909091 72.7273 62.002)"><path d="m1063.77 662.975-316.806-363.486h-316.801v942.031h633.607z" fill="#fff" transform="matrix(1.34154 0 0 1.16769 -202.079 -99.7109)"/><path d="m800 250h425v425.044z" fill="#74d1ea" fill-opacity=".5" transform="matrix(-1 0 0 -1 2025 925.044)"/><path d="m375 800 220.938 162.741 204.062-85.739 212.5 129.558 212.5-57.979" fill="none" stroke="#74d1ea" stroke-width="82.5"/></g><path d="m860.892 132.91c-366.584 0-664.204 297.619-664.204 664.203 0 366.587 297.62 664.207 664.204 664.207 366.588 0 664.208-297.62 664.208-664.207 0-366.584-297.62-664.203-664.208-664.203zm0 94.886c314.218 0 569.318 255.102 569.318 569.317 0 314.217-255.1 569.317-569.318 569.317-314.215 0-569.317-255.1-569.317-569.317 0-314.215 255.102-569.317 569.317-569.317z" fill="#f9423a" transform="matrix(.745213 -.745213 .745213 .745213 -440.01349 836.804116)"/><path d="m153.299 800h1280.761" fill="none" stroke="#f9423a" stroke-width="102.05" transform="matrix(.67836522 -.67836522 .707107 .707107 -319.834503 773.296503)"/></svg>